<svg width="19" height="23" viewBox="0 0 19 23" fill="none" xmlns="http://www.w3.org/2000/svg">
<path fill-rule="evenodd" clip-rule="evenodd" d="M7.44272 2.44984C7.44065 1.32954 6.5193 0.417872 5.39901 0.416098C4.46057 0.414612 3.37176 0.410277 2.45373 0.405932C1.3429 0.400674 0.440317 1.30039 0.442367 2.41123L0.470886 17.8644L0.47527 20.2394C0.477303 21.3409 1.36966 22.2334 2.47121 22.2357L5.47149 22.2418C6.57909 22.244 7.47759 21.3457 7.47555 20.2381L7.44272 2.44984Z" fill="white"/>
<path opacity="0.5" d="M18.6574 16.7981L18.4728 2.41841C18.4588 1.32452 17.5685 0.444894 16.4745 0.444076L12.7888 0.441318C12.7816 0.441313 12.7851 0.441402 12.7779 0.441308V0.441308C11.8044 0.428717 11.0229 1.22702 11.0442 2.20034L11.441 20.2838C11.4648 21.37 12.3515 22.2386 13.438 22.2399L15.1549 22.2421L16.6589 22.244C17.7654 22.2454 18.6628 21.3481 18.6615 20.2416L18.6574 16.7981Z" fill="white"/>
</svg>
